<?xml version="1.0" encoding="UTF-8"?>
<svg width="142px" height="36px" viewBox="0 0 142 36" version="1.1" xmlns="http://www.w3.org/2000/svg" xmlns:xlink="http://www.w3.org/1999/xlink">
    <title>logo_1</title>
    <defs>
        <polygon id="path-1" points="0.00367725261 0.3079013 19.7774171 0.3079013 19.7774171 13.9188951 0.00367725261 13.9188951"></polygon>
        <polygon id="path-3" points="0.0033479464 0.10971385 19.7776366 0.10971385 19.7776366 13.7210918 0.0033479464 13.7210918"></polygon>
        <polygon id="path-5" points="0.0677821935 0.106750094 14.1124173 0.106750094 14.1124173 24.4732138 0.0677821935 24.4732138"></polygon>
    </defs>
    <g id="页面-1" stroke="none" stroke-width="1" fill="none" fill-rule="evenodd">
        <g id="app-1" transform="translate(-360.000000, -75.000000)">
            <g id="编组" transform="translate(360.000000, 75.000000)">
                <g transform="translate(0.000000, 0.241217)">
                    <mask id="mask-2" fill="white">
                        <use xlink:href="#path-1"></use>
                    </mask>
                    <g id="Clip-2"></g>
                    <path d="M16.4827085,0.601203359 C15.8032401,0.209328977 14.9668023,0.20987782 14.2878827,0.601752202 L7.69517248,4.40853191 L1.10246228,8.21421394 C0.423542662,8.60663717 0.00532378362,9.33056197 0.00477493995,10.1148596 L0.00367725261,13.9188951 L19.7774171,2.50239784 L16.4827085,0.601203359 Z" id="Fill-1" fill="#fff" mask="url(#mask-2)"></path>
                </g>
                <polygon id="Fill-3" fill="#fff" points="24.1699776 5.27762587 21.082732 7.05972127 21.082732 12.1299391 28.5623736 7.81108826"></polygon>
                <polygon id="Fill-5" fill="#fff" points="0.00186606849 19.2313725 0.000219537469 24.3021392 15.3793681 15.4234951 15.3793681 10.3527284"></polygon>
                <polygon id="Fill-7" fill="#fff" points="30.7580227 11.6139712 15.3788741 20.4931641 15.3788741 25.5628331 30.7563761 16.6847379"></polygon>
                <polygon id="Fill-9" fill="#fff" points="2.19531981 28.1044733 6.58771572 30.6384845 9.67496137 28.8558403 9.67496137 23.7861713"></polygon>
                <g transform="translate(10.976873, 21.646120)">
                    <mask id="mask-4" fill="white">
                        <use xlink:href="#path-3"></use>
                    </mask>
                    <g id="Clip-12"></g>
                    <path d="M19.7776366,0.10971385 L0.0033479464,11.5267599 L3.29860536,13.4274056 C3.97752498,13.8192799 4.81396274,13.8192799 5.4934312,13.4274056 L18.6788516,5.81439498 C19.3577712,5.4225206 19.7759901,4.69749811 19.7765389,3.91429819 L19.7776366,0.10971385 Z" id="Fill-11" fill="#fff" mask="url(#mask-4)"></path>
                </g>
                <polygon id="Fill-13" fill="#fff" points="64.9235413 30.2028673 64.9235413 9.25130894 59.0141415 9.25130894 59.0141415 5.83640361 74.7851644 5.83640361 74.7851644 9.25130894 68.8373455 9.25130894 68.8373455 30.2028673"></polygon>
                <polygon id="Fill-15" fill="#fff" points="105.376339 12.8966188 105.376339 30.2027575 101.999852 30.2027575 101.999852 5.83629384 104.724312 5.83629384 115.928956 23.0650456 115.928956 5.83629384 119.343861 5.83629384 119.343861 30.2027575 116.619401 30.2027575"></polygon>
                <g transform="translate(126.234045, 5.729654)">
                    <mask id="mask-6" fill="white">
                        <use xlink:href="#path-5"></use>
                    </mask>
                    <g id="Clip-18"></g>
                    <polygon id="Fill-17" fill="#fff" mask="url(#mask-6)" points="0.0677821935 24.4732138 0.0677821935 0.106750094 13.9211453 0.106750094 13.9211453 3.52165542 3.98158642 3.52165542 3.98158642 10.390434 13.1917321 10.390434 13.1917321 13.7669203 3.98158642 13.7669203 3.98158642 21.0577596 14.1126918 21.0577596 14.1126918 24.4732138"></polygon>
                </g>
                <path d="M51.2753359,30.3288269 L39.5564258,30.3288269 L39.5564258,26.9259961 L50.1227642,26.9259961 C50.7286876,26.9259961 51.2204515,26.4342322 51.2204515,25.8283088 L51.2204515,20.7043043 C51.2204515,20.097832 50.7286876,19.6066169 50.1227642,19.6066169 L42.8879069,19.6066169 C41.0388526,19.6066169 39.5399605,18.107176 39.5399605,16.2581217 L39.5399605,9.10559095 C39.5399605,7.25653662 41.0388526,5.75764455 42.8879069,5.75764455 L54.6232823,5.75764455 L54.6232823,9.16102416 L44.0404786,9.16102416 C43.4340064,9.16102416 42.9427913,9.65223925 42.9427913,10.2587115 L42.9427913,15.1060988 C42.9427913,15.7120222 43.4340064,16.2037862 44.0404786,16.2037862 L51.2753359,16.2037862 C53.1243902,16.2037862 54.6232823,17.7021294 54.6232823,19.5511837 L54.6232823,26.9803317 C54.6232823,28.8299348 53.1243902,30.3288269 51.2753359,30.3288269" id="Fill-19" fill="#fff"></path>
                <path d="M83.794543,8.97161821 C83.1886196,8.97161821 82.6968557,9.46338214 82.6968557,10.0693056 L82.6968557,25.8463658 C82.6968557,26.452838 83.1886196,26.9440531 83.794543,26.9440531 L91.35706,26.9440531 C91.9629834,26.9440531 92.4547473,26.452838 92.4547473,25.8463658 L92.4547473,10.0693056 C92.4547473,9.46338214 91.9629834,8.97161821 91.35706,8.97161821 L83.794543,8.97161821 Z M92.0195143,30.4648853 L83.1315399,30.4648853 C80.9504351,30.4648853 79.1760235,28.6904737 79.1760235,26.5093689 L79.1760235,9.40685124 C79.1760235,7.22519764 80.9504351,5.45078605 83.1315399,5.45078605 L92.0195143,5.45078605 C94.2006191,5.45078605 95.9755795,7.22519764 95.9755795,9.40685124 L95.9755795,26.5093689 C95.9755795,28.6904737 94.2006191,30.4648853 92.0195143,30.4648853 L92.0195143,30.4648853 Z" id="Fill-21" fill="#fff"></path>
            </g>
        </g>
    </g>
</svg>